<svg xmlns="http://www.w3.org/2000/svg" width="60" height="59" viewBox="0 0 60 59">
  <g id="Facebook" transform="translate(-1058 -6486)">
    <rect id="Facebook-2" data-name="Facebook" width="60" height="59" rx="5" transform="translate(1058 6486)" fill="#3054a4"/>
    <g id="facebook-logo" transform="translate(1083 6506)">
      <path id="Path_10" data-name="Path 10" d="M32.107,0l-2.5,0a4.39,4.39,0,0,0-4.624,4.744V6.932H22.47a.393.393,0,0,0-.393.393v3.169a.393.393,0,0,0,.393.393h2.514v8a.393.393,0,0,0,.393.393h3.279a.393.393,0,0,0,.393-.393v-8h2.939a.393.393,0,0,0,.393-.393V7.325a.393.393,0,0,0-.393-.393h-2.94V5.077c0-.891.212-1.344,1.373-1.344h1.684A.393.393,0,0,0,32.5,3.34V.4A.393.393,0,0,0,32.107,0Z" transform="translate(-22.077)" fill="#fff"/>
    </g>
  </g>
</svg>
