<svg xmlns="http://www.w3.org/2000/svg" width="60" height="59" viewBox="0 0 60 59">
  <g id="Instagram" transform="translate(-1192 -6486)">
    <rect id="Instagram-2" data-name="Instagram" width="60" height="59" rx="5" transform="translate(1192 6486)" fill="#c42862"/>
    <g id="instagram-logo" transform="translate(1210 6504)">
      <path id="Path_12" data-name="Path 12" d="M16.716,0H6.371A6.379,6.379,0,0,0,0,6.371V16.716a6.378,6.378,0,0,0,6.371,6.371H16.716a6.379,6.379,0,0,0,6.372-6.371V6.371A6.379,6.379,0,0,0,16.716,0Zm4.323,16.716a4.328,4.328,0,0,1-4.323,4.323H6.371a4.328,4.328,0,0,1-4.323-4.323V6.371A4.328,4.328,0,0,1,6.371,2.048H16.716a4.328,4.328,0,0,1,4.323,4.323V16.716Z" transform="translate(0 0)" fill="#fff"/>
      <path id="Path_13" data-name="Path 13" d="M46.917,40.97a5.949,5.949,0,1,0,5.949,5.949A5.956,5.956,0,0,0,46.917,40.97Zm0,9.849a3.9,3.9,0,1,1,3.9-3.9A3.9,3.9,0,0,1,46.917,50.819Z" transform="translate(-35.373 -35.375)" fill="#fff"/>
      <path id="Path_14" data-name="Path 14" d="M120.423,28.251a1.5,1.5,0,1,0,1.062.44A1.508,1.508,0,0,0,120.423,28.251Z" transform="translate(-102.681 -24.393)" fill="#fff"/>
    </g>
  </g>
</svg>
