<svg xmlns="http://www.w3.org/2000/svg" width="60" height="59" viewBox="0 0 60 59">
  <g id="Pinterest" transform="translate(-1325 -6486)">
    <rect id="Pinterests" width="60" height="59" rx="5" transform="translate(1325 6486)" fill="#bd081c"/>
    <g id="pinterest-logo" transform="translate(1342.992 6504)">
      <path id="Path_217" data-name="Path 217" d="M21.548,5.749a11.5,11.5,0,0,0-4.2-4.2A11.291,11.291,0,0,0,11.552,0,11.291,11.291,0,0,0,5.758,1.548a11.491,11.491,0,0,0-4.2,4.2A11.29,11.29,0,0,0,.008,11.544,11.19,11.19,0,0,0,1.917,17.9a11.5,11.5,0,0,0,5.005,4.224,9.958,9.958,0,0,1,.2-2.66l1.488-6.283a4.009,4.009,0,0,1-.376-1.834,3.443,3.443,0,0,1,.646-2.134,1.921,1.921,0,0,1,1.578-.857,1.41,1.41,0,0,1,1.157.5,1.9,1.9,0,0,1,.406,1.248,4.668,4.668,0,0,1-.173,1.135q-.173.669-.451,1.548T11,14.189a1.706,1.706,0,0,0,.346,1.571,1.839,1.839,0,0,0,1.473.654,3.023,3.023,0,0,0,2.638-1.789,8.577,8.577,0,0,0,1.029-4.344,4.261,4.261,0,0,0-1.27-3.2,4.87,4.87,0,0,0-3.54-1.233A5.473,5.473,0,0,0,5.99,11.379a3.419,3.419,0,0,0,.767,2.27.686.686,0,0,1,.165.646q-.03.09-.12.451c-.06.24-.1.4-.12.466q-.12.481-.571.3a3.391,3.391,0,0,1-1.759-1.668,6.011,6.011,0,0,1-.6-2.751,6.557,6.557,0,0,1,.323-2.014A6.87,6.87,0,0,1,5.08,7.132,7.909,7.909,0,0,1,6.719,5.471,7.687,7.687,0,0,1,9.041,4.314a9.65,9.65,0,0,1,2.946-.436,7.734,7.734,0,0,1,3.833.947,6.766,6.766,0,0,1,2.593,2.45,6.185,6.185,0,0,1,.894,3.217,10.113,10.113,0,0,1-.781,4.058,6.663,6.663,0,0,1-2.21,2.833,5.411,5.411,0,0,1-3.247,1.03,3.566,3.566,0,0,1-1.714-.428,2.506,2.506,0,0,1-1.1-1.015q-.676,2.66-.812,3.171a9.246,9.246,0,0,1-1.172,2.465,11.543,11.543,0,0,0,9.071-1.068,11.489,11.489,0,0,0,4.2-4.2,11.293,11.293,0,0,0,1.548-5.795A11.289,11.289,0,0,0,21.548,5.749Z" transform="translate(0 0)" fill="#fff"/>
    </g>
  </g>
</svg>
