<svg xmlns="http://www.w3.org/2000/svg" width="60" height="59" viewBox="0 0 60 59">
  <g id="Twitter" transform="translate(-1125 -6486)">
    <rect id="Twitter-2" data-name="Twitter" width="60" height="59" rx="5" transform="translate(1125 6486)" fill="#55acee"/>
    <g id="twitter_1_" data-name="twitter (1)" transform="translate(1143 6506)">
      <g id="Group_7" data-name="Group 7" transform="translate(0 0)">
        <path id="Path_11" data-name="Path 11" d="M23.33,50.244A9.972,9.972,0,0,1,20.574,51a4.756,4.756,0,0,0,2.1-2.644,9.559,9.559,0,0,1-3.033,1.158,4.783,4.783,0,0,0-8.273,3.271,4.925,4.925,0,0,0,.111,1.091,13.538,13.538,0,0,1-9.858-5,4.784,4.784,0,0,0,1.47,6.392,4.723,4.723,0,0,1-2.161-.589v.052a4.8,4.8,0,0,0,3.832,4.7,4.774,4.774,0,0,1-1.254.157,4.228,4.228,0,0,1-.905-.082,4.828,4.828,0,0,0,4.469,3.332,9.61,9.61,0,0,1-5.93,2.04A8.954,8.954,0,0,1,0,64.809a13.465,13.465,0,0,0,7.337,2.146A13.519,13.519,0,0,0,20.95,53.345c0-.211-.007-.416-.017-.618A9.541,9.541,0,0,0,23.33,50.244Z" transform="translate(0 -48)" fill="#fff"/>
      </g>
    </g>
  </g>
</svg>
