<svg xmlns="http://www.w3.org/2000/svg" width="60" height="59" viewBox="0 0 60 59">
  <g id="Youtube" transform="translate(-1258 -6486)">
    <rect id="Youtube-2" data-name="Youtube" width="60" height="59" rx="5" transform="translate(1258 6486)" fill="#cd201f"/>
    <g id="youtube-logo" transform="translate(1280 6506)">
      <g id="Group_6" data-name="Group 6" transform="translate(0)">
        <path id="Path_4" data-name="Path 4" d="M60,218.783a2.032,2.032,0,0,0-1.732-1.58q-1.991-.216-6.007-.216t-6,.216a1.964,1.964,0,0,0-1.115.509,2.055,2.055,0,0,0-.628,1.071,18.757,18.757,0,0,0-.281,3.788,18.369,18.369,0,0,0,.281,3.788,1.979,1.979,0,0,0,.623,1.071,1.918,1.918,0,0,0,1.109.5,57.864,57.864,0,0,0,6.007.227,57.853,57.853,0,0,0,6.007-.227,1.894,1.894,0,0,0,1.1-.5A2.054,2.054,0,0,0,60,226.359a18.755,18.755,0,0,0,.282-3.788A18.383,18.383,0,0,0,60,218.783Zm-11.181,1.093H47.666v6.158H46.583v-6.158H45.447v-1.017h3.377v1.017Zm2.922,6.158h-.963v-.585a1.584,1.584,0,0,1-1.1.66.583.583,0,0,1-.628-.4,2.679,2.679,0,0,1-.087-.79v-4.232h.963v3.94a2.984,2.984,0,0,0,.011.379q.032.227.227.227.292,0,.617-.455v-4.091h.963v5.347Zm3.68-1.6a4,4,0,0,1-.1,1.083.75.75,0,0,1-.769.6,1.344,1.344,0,0,1-1.007-.6v.519h-.963v-7.176h.963v2.349a1.3,1.3,0,0,1,1.007-.584.752.752,0,0,1,.769.606,3.866,3.866,0,0,1,.1,1.071Zm3.658-.887H57.147v.942q0,.747.5.747a.414.414,0,0,0,.433-.39,5.393,5.393,0,0,0,.022-.66h.985v.141a4.792,4.792,0,0,1-.022.628,1.34,1.34,0,0,1-1.4,1.158,1.39,1.39,0,0,1-1.169-.552,2.034,2.034,0,0,1-.314-1.256V222.43a2.09,2.09,0,0,1,.3-1.256,1.48,1.48,0,0,1,2.306,0,2.146,2.146,0,0,1,.292,1.256v1.115Z" transform="translate(-44.245 -208.76)" fill="#fff"/>
        <path id="Path_5" data-name="Path 5" d="M290.274,336.043a.7.7,0,0,0-.487.238v3.258a.7.7,0,0,0,.487.238q.422,0,.422-.725v-2.284Q290.7,336.043,290.274,336.043Z" transform="translate(-280.478 -323.304)" fill="#fff"/>
        <path id="Path_6" data-name="Path 6" d="M385.068,336.043q-.487,0-.487.736v.5h.974v-.5Q385.555,336.043,385.068,336.043Z" transform="translate(-371.679 -323.304)" fill="#fff"/>
        <path id="Path_7" data-name="Path 7" d="M113.861,4.319V7.252h1.082V4.319L116.253,0h-1.1l-.736,2.847L113.644,0H112.5q.3.909.7,2.024A18.341,18.341,0,0,1,113.861,4.319Z" transform="translate(-109.91)" fill="#fff"/>
        <path id="Path_8" data-name="Path 8" d="M213.288,52.65a1.331,1.331,0,0,0,1.147-.552,2.132,2.132,0,0,0,.3-1.277V48.926a2.112,2.112,0,0,0-.3-1.266,1.457,1.457,0,0,0-2.284,0,2.111,2.111,0,0,0-.3,1.266v1.894a2.163,2.163,0,0,0,.3,1.277A1.338,1.338,0,0,0,213.288,52.65Zm-.465-3.918q0-.747.465-.747t.465.747V51q0,.758-.465.758T212.822,51Z" transform="translate(-205.494 -45.322)" fill="#fff"/>
        <path id="Path_9" data-name="Path 9" d="M309.923,54.3a1.558,1.558,0,0,0,1.115-.671v.6h.985v-5.4h-.985v4.124q-.325.465-.617.465-.195,0-.227-.238a2.827,2.827,0,0,1-.011-.379V48.822H309.2v4.265a2.784,2.784,0,0,0,.087.812A.6.6,0,0,0,309.923,54.3Z" transform="translate(-299.154 -46.971)" fill="#fff"/>
      </g>
    </g>
  </g>
</svg>
